<svg width="458" height="116" viewBox="0 0 458 116" fill="none" xmlns="http://www.w3.org/2000/svg">
<g filter="url(#filter0_d_303_35)">
<path d="M34.5024 56.9584H17.2163V51.5984H34.5024V56.9584ZM29.3433 52.8714C32.604 52.8714 35.3064 53.3627 37.4504 54.3454C39.5944 55.2834 41.2024 56.5787 42.2744 58.2314C43.391 59.8841 43.9493 61.7824 43.9493 63.9264C43.9493 68.0357 42.4307 71.0954 39.3933 73.1054C36.4007 75.1154 32.1127 76.1204 26.5293 76.1204C25.368 76.1204 24.1397 76.0757 22.8443 75.9864C21.5937 75.9417 20.343 75.8077 19.0923 75.5844C17.8863 75.4057 16.725 75.1601 15.6083 74.8474C13.5983 74.2221 12.5933 73.0607 12.5933 71.3634V37.7964C12.5933 36.9924 12.7943 36.3894 13.1963 35.9874C13.643 35.5407 14.246 35.2057 15.0053 34.9824C16.524 34.5357 18.199 34.2231 20.0303 34.0444C21.9063 33.8657 23.8717 33.7764 25.9263 33.7764C31.1077 33.7764 35.15 34.6921 38.0534 36.5234C40.9567 38.3547 42.4083 41.1687 42.4083 44.9654C42.4083 46.9307 41.8947 48.6951 40.8673 50.2584C39.84 51.8217 38.2544 53.0501 36.1103 53.9434C33.9663 54.8367 31.1747 55.2834 27.7353 55.2834L27.1994 51.5984C29.924 51.5984 31.9563 51.0624 33.2963 49.9904C34.681 48.8737 35.3733 47.3104 35.3733 45.3004C35.3733 43.3351 34.5693 41.8611 32.9614 40.8784C31.398 39.8511 29.0754 39.3374 25.9934 39.3374C24.6534 39.3374 23.425 39.3821 22.3083 39.4714C21.2363 39.5607 20.276 39.6724 19.4273 39.8064V69.8894C20.3653 70.1127 21.482 70.2914 22.7773 70.4254C24.1173 70.5147 25.435 70.5594 26.7303 70.5594C29.991 70.5594 32.4923 70.0011 34.2343 68.8844C35.9764 67.7677 36.8474 66.0257 36.8474 63.6584C36.8474 61.5591 36.0657 59.9287 34.5024 58.7674C32.939 57.5614 30.661 56.9584 27.6684 56.9584L29.3433 52.8714ZM71.3853 76.2544C67.946 76.2544 64.998 75.6291 62.5413 74.3784C60.0847 73.1277 58.2087 71.3634 56.9133 69.0854C55.6627 66.7627 55.0373 64.0827 55.0373 61.0454V55.8864H61.9383V60.6434C61.9383 63.8594 62.8317 66.3161 64.6183 68.0134C66.4497 69.6661 68.7053 70.4924 71.3853 70.4924C74.0653 70.4924 76.2987 69.6661 78.0853 68.0134C79.9167 66.3161 80.8323 63.8594 80.8323 60.6434V55.8864H87.8003V61.0454C87.8003 64.0827 87.1527 66.7627 85.8573 69.0854C84.562 71.3634 82.686 73.1277 80.2293 74.3784C77.8173 75.6291 74.8693 76.2544 71.3853 76.2544ZM55.0373 58.4324V34.7144C55.3053 34.6251 55.752 34.5134 56.3773 34.3794C57.0027 34.2454 57.628 34.1784 58.2533 34.1784C59.5487 34.1784 60.4867 34.4241 61.0673 34.9154C61.648 35.3621 61.9383 36.1884 61.9383 37.3944V58.4324H55.0373ZM80.8323 58.4324V34.7144C81.1003 34.6251 81.5247 34.5134 82.1053 34.3794C82.7307 34.2454 83.3783 34.1784 84.0483 34.1784C85.3437 34.1784 86.2817 34.4241 86.8623 34.9154C87.4877 35.3621 87.8003 36.1884 87.8003 37.3944V58.4324H80.8323ZM111.205 61.1794C109.999 59.3481 108.703 57.3827 107.319 55.2834C105.979 53.1841 104.639 51.0624 103.299 48.9184C101.959 46.7297 100.708 44.5857 99.5468 42.4864C98.3854 40.3871 97.3581 38.4441 96.4648 36.6574C96.7328 36.0767 97.1794 35.5407 97.8048 35.0494C98.4301 34.5134 99.2118 34.2454 100.15 34.2454C101.222 34.2454 102.07 34.5134 102.696 35.0494C103.321 35.5407 103.946 36.3671 104.572 37.5284C104.974 38.2877 105.51 39.2481 106.18 40.4094C106.85 41.5707 107.542 42.8437 108.257 44.2284C109.016 45.5684 109.775 46.9084 110.535 48.2484C111.294 49.5437 111.986 50.7497 112.612 51.8664C113.237 52.9831 113.751 53.8764 114.153 54.5464H114.488C115.872 52.1344 117.123 49.8564 118.24 47.7124C119.401 45.5684 120.518 43.4467 121.59 41.3474C122.662 39.2481 123.734 37.1041 124.806 34.9154C125.208 34.6921 125.677 34.5357 126.213 34.4464C126.749 34.3124 127.24 34.2454 127.687 34.2454C128.714 34.2454 129.518 34.5134 130.099 35.0494C130.679 35.5407 130.97 36.2554 130.97 37.1934C130.97 37.6401 130.657 38.5334 130.032 39.8734C129.451 41.2134 128.58 42.9107 127.419 44.9654C126.302 46.9754 124.895 49.3651 123.198 52.1344C121.5 54.8591 119.557 57.8741 117.369 61.1794H111.205ZM117.704 58.2314V75.1824C117.436 75.2717 116.989 75.3834 116.364 75.5174C115.783 75.6514 115.18 75.7184 114.555 75.7184C113.259 75.7184 112.321 75.4727 111.741 74.9814C111.16 74.4454 110.87 73.6191 110.87 72.5024V58.2314H117.704Z" fill="#0428E4"/>
</g>
<g filter="url(#filter1_d_303_35)">
<path d="M189.502 54.0994C189.502 61.3954 185.797 67.8364 180.211 71.6554L186.823 78.7804H174.796L171.889 75.0184C170.692 75.2464 169.495 75.3604 168.241 75.3604C156.499 75.3604 146.98 65.8414 146.98 54.0994C146.98 42.3574 156.499 32.8384 168.241 32.8384C179.983 32.8384 189.502 42.3574 189.502 54.0994ZM158.437 54.0994C158.437 59.6854 162.598 64.6444 168.241 64.6444C173.884 64.6444 178.045 59.6854 178.045 54.0994C178.045 48.4564 173.884 43.4974 168.241 43.4974C162.598 43.4974 158.437 48.4564 158.437 54.0994ZM234.966 56.1514C234.966 67.8934 229.836 75.4174 215.985 75.4174C202.077 75.4174 197.118 67.8934 197.118 56.1514V34.2064H209.088V56.1514C209.088 61.7944 211.425 64.7014 215.985 64.7014C220.488 64.7014 222.996 61.7944 222.996 56.1514V34.2064H234.966V56.1514ZM242.58 34.2064H254.55V74.0494H242.58V34.2064ZM282.563 64.7014C285.812 64.7014 288.548 63.0484 290.315 60.5974L298.922 67.7794C294.989 72.4534 289.118 75.4174 282.563 75.4174C270.821 75.4174 261.302 65.8984 261.302 54.1564C261.302 42.4144 270.821 32.8954 282.563 32.8954C289.118 32.8954 294.989 35.8594 298.922 40.5334L290.315 47.6584C288.548 45.2074 285.812 43.5544 282.563 43.5544C276.92 43.5544 272.759 48.5134 272.759 54.1564C272.759 59.7424 276.92 64.7014 282.563 64.7014ZM329.954 74.1064L319.979 58.7164L317.642 61.3384V74.1064H305.672V34.2064H317.642V46.1194L328.358 34.2064H341.582L327.218 50.5084L343.52 74.1064H329.954ZM375.009 64.0744V74.1064H344.343V34.2064H356.313V64.0744H375.009ZM411.786 34.2064L398.676 56.1514V74.0494H386.649V56.1514L373.539 34.2064H385.509L392.691 47.3164L399.816 34.2064H411.786Z" fill="white"/>
<path d="M431.556 61.9084C434.919 61.9084 437.655 64.6444 437.655 68.0074C437.655 71.3704 434.919 74.1064 431.556 74.1064C428.193 74.1064 425.457 71.3704 425.457 68.0074C425.457 64.6444 428.193 61.9084 431.556 61.9084Z" fill="#0428E4"/>
</g>
<defs>
<filter id="filter0_d_303_35" x="0.593353" y="21.7764" width="150.376" height="74.4785" filterUnits="userSpaceOnUse" color-interpolation-filters="sRGB">
<feFlood flood-opacity="0" result="BackgroundImageFix"/>
<feColorMatrix in="SourceAlpha" type="matrix" values="0 0 0 0 0 0 0 0 0 0 0 0 0 0 0 0 0 0 127 0" result="hardAlpha"/>
<feOffset dx="4" dy="4"/>
<feGaussianBlur stdDeviation="8"/>
<feComposite in2="hardAlpha" operator="out"/>
<feColorMatrix type="matrix" values="0 0 0 0 0 0 0 0 0 0 0 0 0 0 0 0 0 0 0.04 0"/>
<feBlend mode="normal" in2="BackgroundImageFix" result="effect1_dropShadow_303_35"/>
<feBlend mode="normal" in="SourceGraphic" in2="effect1_dropShadow_303_35" result="shape"/>
</filter>
<filter id="filter1_d_303_35" x="134.98" y="20.8389" width="322.674" height="77.9414" filterUnits="userSpaceOnUse" color-interpolation-filters="sRGB">
<feFlood flood-opacity="0" result="BackgroundImageFix"/>
<feColorMatrix in="SourceAlpha" type="matrix" values="0 0 0 0 0 0 0 0 0 0 0 0 0 0 0 0 0 0 127 0" result="hardAlpha"/>
<feOffset dx="4" dy="4"/>
<feGaussianBlur stdDeviation="8"/>
<feComposite in2="hardAlpha" operator="out"/>
<feColorMatrix type="matrix" values="0 0 0 0 0 0 0 0 0 0 0 0 0 0 0 0 0 0 0.04 0"/>
<feBlend mode="normal" in2="BackgroundImageFix" result="effect1_dropShadow_303_35"/>
<feBlend mode="normal" in="SourceGraphic" in2="effect1_dropShadow_303_35" result="shape"/>
</filter>
</defs>
</svg>
